<?xml version="1.0" standalone="no"?>
<!DOCTYPE svg PUBLIC "-//W3C//DTD SVG 20010904//EN"
 "http://www.w3.org/TR/2001/REC-SVG-20010904/DTD/svg10.dtd">
<svg version="1.0" xmlns="http://www.w3.org/2000/svg"
 width="200.000000pt" height="200.000000pt" viewBox="0 0 200.000000 200.000000"
 preserveAspectRatio="xMidYMid meet">
<metadata>
Created by potrace 1.16, written by Peter Selinger 2001-2019
</metadata>
<g transform="translate(0.000000,200.000000) scale(0.100000,-0.100000)"
fill="#000000" stroke="none">
<path d="M310 1772 c-58 -27 -90 -73 -90 -130 0 -90 69 -147 169 -140 73 5
114 33 137 93 16 43 16 47 0 90 -24 62 -64 89 -141 92 -33 1 -67 -1 -75 -5z"/>
<path d="M1425 1390 c-238 -119 -407 -161 -570 -140 -114 14 -173 34 -305 100
-141 71 -216 95 -253 81 -15 -6 -40 -30 -58 -53 -29 -41 -31 -47 -26 -116 11
-183 194 -415 400 -506 l58 -25 -52 62 c-88 104 -123 211 -83 251 22 23 119
21 240 -5 277 -59 589 41 787 251 67 70 81 98 75 141 -2 19 -10 25 -38 27 -27
2 -68 -14 -175 -68z"/>
</g>
</svg>
